<svg id="Layer_1" data-name="Layer 1" xmlns="http://www.w3.org/2000/svg" xmlns:xlink="http://www.w3.org/1999/xlink" viewBox="0 0 101.86 152.23"><defs><style>.cls-1{fill:none;}.cls-2{fill:#c5cbd3;}.cls-3{fill:#95754d;}.cls-4{clip-path:url(#clip-path);}.cls-5{fill:#bf9c73;}.cls-6{fill:#d0af8d;}.cls-7{fill:#dcc8b5;}</style><clipPath id="clip-path" transform="translate(-246.5 -345.15)"><path class="cls-1" d="M297.42,493.53c20.14,0,27.32-6,27.32-6v-5.05l1.71-1.69L341.12,370c-25.75,6.6-43.7,6.46-43.7,6.46s-17.94.14-43.69-6.46L268.4,480.74l1.71,1.69v5.05S277.29,493.53,297.42,493.53Z"/></clipPath></defs><path class="cls-2" d="M297.42,497.38c9.9-.05,20.71-1,29.44-5.58.65-.35,2.64-1.16,2.64-2v-5.56c0-.42-.43.46.06,0l1.72-1.69c.34-.33.29-1.15.35-1.56.17-1.27.33-2.54.5-3.8q.94-7.08,1.88-14.16l11.67-88.06,2.67-20.16c0-.4-.47-.68-.85-.59a202.39,202.39,0,0,1-100.15,0c-.38-.09-.9.19-.85.59Q250.77,387,255,419.13q2.91,21.93,5.81,43.85.95,7.08,1.88,14.16c.17,1.26.33,2.53.5,3.8.06.41,0,1.23.35,1.56l1.46,1.43c.66.65.32-.19.32.81v5c0,.88,2,1.67,2.64,2,8.63,4.64,19.63,5.53,29.43,5.58a.61.61,0,1,0,0-1.22c-9.86,0-21.06-.93-29.6-5.89a10.08,10.08,0,0,1-1.28-.84c.28.22.15.4.15-.34V486c0-.91.28-1.92-.44-2.63l-1.66-1.62c.16.16.15.52.11.24l-3-22.64-11.64-87.89q-1.11-8.34-2.21-16.66l-.85.58a203.77,203.77,0,0,0,100.85,0l-.85-.58q-4.26,32.19-8.53,64.37-2.91,21.93-5.81,43.85-.93,7.08-1.87,14.16l-.51,3.8-.12.89,0,.2c.08-.6-.23,0-.63.42-.69.67-1.35,1.06-1.35,2v4.65c0,1,.5.1-.16.57a17,17,0,0,1-2.07,1.22c-8.41,4.41-19,5.24-28.51,5.28A.61.61,0,1,0,297.42,497.38Z" transform="translate(-246.5 -345.15)"/><path class="cls-3" d="M297.42,493.53c20.14,0,27.32-6,27.32-6v-5.05l1.71-1.69L341.12,370c-25.75,6.6-43.7,6.46-43.7,6.46s-17.94.14-43.69-6.46L268.4,480.74l1.71,1.69v5.05S277.29,493.53,297.42,493.53Z" transform="translate(-246.5 -345.15)"/><g class="cls-4"><path class="cls-5" d="M259.2,425.76s38,18.66,76.18,0l8.35-59.61H250.32Z" transform="translate(-246.5 -345.15)"/></g><path class="cls-6" d="M341.12,370c0,3.61-19.56,6.54-43.7,6.54s-43.69-2.93-43.69-6.54,19.56-6.55,43.69-6.55S341.12,366.41,341.12,370Z" transform="translate(-246.5 -345.15)"/><path class="cls-2" d="M247.35,355.34c10.15-3.76,21.21-6,32-7.49,22.84-3.19,47-1.78,68,7.43.77.34,1.46-.7.67-1-20.78-9.1-44.26-10.61-66.9-7.83-11.5,1.42-23.34,3.77-34.11,7.77-.8.3-.45,1.47.35,1.17Z" transform="translate(-246.5 -345.15)"/><polygon class="cls-7" points="36.84 141.88 29.94 121.1 52.96 118.08 59.85 138.86 36.84 141.88"/><path class="cls-7" d="M284.63,486.7q-3.45-10.38-6.89-20.78l-.94,1.49,23-3-1.65-.85q3.43,10.4,6.89,20.78l.94-1.49-23,3c-1.72.22-1,2.56.71,2.33l23-3a1.21,1.21,0,0,0,.94-1.49l-6.9-20.78a1.4,1.4,0,0,0-1.65-.85l-23,3a1.2,1.2,0,0,0-.94,1.49l6.9,20.78C282.53,488.84,285.13,488.2,284.63,486.7Z" transform="translate(-246.5 -345.15)"/><polygon class="cls-7" points="57.03 116.92 50.13 96.14 73.15 93.12 80.04 113.9 57.03 116.92"/><path class="cls-7" d="M304.82,461.74q-3.45-10.38-6.89-20.78l-.94,1.49,23-3-1.65-.84q3.43,10.38,6.89,20.78l.94-1.49-23,3c-1.72.22-1,2.56.71,2.33l23-3a1.2,1.2,0,0,0,.94-1.49l-6.9-20.78a1.4,1.4,0,0,0-1.65-.84l-23,3a1.2,1.2,0,0,0-.94,1.49l6.9,20.78C302.72,463.88,305.32,463.24,304.82,461.74Z" transform="translate(-246.5 -345.15)"/></svg>